# xmcd CD database file
#
# Track frame offsets:
#	150
#	18966
#	39724
#	61052
#	82676
#	97270
#	124681
#	146540
#	163083
#	180220
#	197857
#	226808
#	248692
#	292989
#	324127
#
# Disc length: 4713 seconds
#
# Revision: 0
# Processed by: cddbd v1.5.1PL0 Copyright (c) Steve Scherf et al.
# Submitted via: CDex 1.51
#
DISCID=b912670f
DTITLE=Salsa Hits - Salsa Hits Vol. 2
DYEAR=2000
DGENRE=Salsa
TTITLE0=Alabina - Ya Mama Ya Mama
TTITLE1=Celia Cruz - La Vida es un Carnaval
TTITLE2=Gilberto Santa Rosa - No Quiero Na'Regala'o
TTITLE3=Joe Arroyo - Rebelion
TTITLE4=Marc Anthony - I Need to Know
TTITLE5=Marc Anthony and La India - Vivir lo Nuestro
TTITLE6=Victor Manuelle - Que Habria Sido de mi
TTITLE7=Oscar de Leon - Lloraras
TTITLE8=Oscar de Leon - Me Voy Pa' Cali
TTITLE9=Thalia - Maria la del Barrio
TTITLE10=Tito Puente y Eddie Palmieri - El Beso
TTITLE11=Victor Manuelle - No Hace Falta Nada
TTITLE12=Wayne Gorbea and Salsa Picante - Estamos Chao
TTITLE13=Willie Colon - Gitana
TTITLE14=Orquesta Gitano - Salsa Gitana
EXTD=YEAR: 2000
EXTT0=
EXTT1=
EXTT2=
EXTT3=
EXTT4=
EXTT5=
EXTT6=
EXTT7=
EXTT8=
EXTT9=
EXTT10=
EXTT11=
EXTT12=
EXTT13=
EXTT14=
PLAYORDER=
